<svg xmlns="http://www.w3.org/2000/svg"  viewBox="0 0 48 48" width="48px" height="48px" baseProfile="basic"><path fill="#7cb342" d="M43,12c0-7.42-0.58-8-8-8H22c-7.42,0-8,0.58-8,8v1h-1c-7.42,0-8,0.58-8,8v13c0,7.42,0.58,8,8,8h12	c7.42,0,8-0.58,8-8v-1h2c7.42,0,8-0.58,8-8V12z M38,23c0,4.637-0.363,5-5,5h-4v4c0,4.637-0.363,5-5,5h-9c-4.637,0-5-0.363-5-5v-9	c0-4.637,0.363-5,5-5h4v-4c0-4.637,0.363-5,5-5h9c4.637,0,5,0.363,5,5V23z"/><path fill="#fbc02d" d="M31,13h-5c-1.657,0-2.404,0.077-2.738,0.727C23.036,14.169,23,14.874,23,16v5c0,0.552-0.448,1-1,1h-5	c-0.722,0-1.271,0.015-1.689,0.085C14.119,22.286,14,22.94,14,25v5c0,1.465,0.06,2.219,0.523,2.604C14.94,32.951,15.682,33,17,33h5	c1.558,0,2.312-0.068,2.674-0.617C24.958,31.952,25,31.224,25,30v-5c0-0.552,0.448-1,1-1h5c2.159,0,2.773-0.131,2.941-1.489	C33.989,22.119,34,21.624,34,21v-5c0-1.25-0.044-1.982-0.344-2.41C33.287,13.066,32.533,13,31,13z"/></svg>