<svg xmlns="http://www.w3.org/2000/svg" width="200" height="200"><defs><radialGradient id="a" cx="-4191.223" cy="-1273.123" r="213.611" fx="-4191.223" fy="-1273.123" gradientTransform="matrix(.35 0 0 -.35 1557.89 -337.142)" gradientUnits="userSpaceOnUse"><stop offset="0" stop-color="#fff"/><stop offset=".11" stop-color="#fff" stop-opacity=".98"/><stop offset=".23" stop-color="#fff" stop-opacity=".93"/><stop offset=".36" stop-color="#fff" stop-opacity=".84"/><stop offset=".5" stop-color="#fff" stop-opacity=".72"/><stop offset=".64" stop-color="#fff" stop-opacity=".56"/><stop offset=".78" stop-color="#fff" stop-opacity=".36"/><stop offset=".92" stop-color="#fff" stop-opacity=".14"/><stop offset="1" stop-color="#fff" stop-opacity="0"/></radialGradient><radialGradient id="b" cx="9460.549" cy="-4993.201" r=".45" fx="9460.549" fy="-4993.201" gradientTransform="scale(-1 1)rotate(-45 10933.397 9077.526)" gradientUnits="userSpaceOnUse"><stop offset="0" stop-color="#fff"/><stop offset="1" stop-color="#fff" stop-opacity="0"/></radialGradient><radialGradient id="c" cx="79.362" cy="-864.31" r=".457" fx="79.362" fy="-864.31" gradientTransform="matrix(1 0 0 -1 0 -698.18)" gradientUnits="userSpaceOnUse"><stop offset="0" stop-color="#fff"/><stop offset="1" stop-color="#fff" stop-opacity="0"/></radialGradient><radialGradient id="d" cx="91.234" cy="-856.069" r=".458" fx="91.234" fy="-856.069" gradientTransform="matrix(1 0 0 -1 0 -698.18)" gradientUnits="userSpaceOnUse"><stop offset="0" stop-color="#fff"/><stop offset="1" stop-color="#fff" stop-opacity="0"/></radialGradient><radialGradient id="e" cx="118.749" cy="-866.544" r=".458" fx="118.749" fy="-866.544" gradientTransform="matrix(1 0 0 -1 0 -698.18)" gradientUnits="userSpaceOnUse"><stop offset="0" stop-color="#fff"/><stop offset="1" stop-color="#fff" stop-opacity="0"/></radialGradient><radialGradient id="f" cx="120.004" cy="-859.978" r=".458" fx="120.004" fy="-859.978" gradientTransform="matrix(1 0 0 -1 0 -698.18)" gradientUnits="userSpaceOnUse"><stop offset="0" stop-color="#fff"/><stop offset="1" stop-color="#fff" stop-opacity="0"/></radialGradient><radialGradient id="g" cx="88.809" cy="-826.093" r=".457" fx="88.809" fy="-826.093" gradientTransform="matrix(1 0 0 -1 0 -698.18)" gradientUnits="userSpaceOnUse"><stop offset="0" stop-color="#fff"/><stop offset="1" stop-color="#fff" stop-opacity="0"/></radialGradient><radialGradient id="h" cx="97.53" cy="-818.485" r=".458" fx="97.53" fy="-818.485" gradientTransform="matrix(1 0 0 -1 0 -698.18)" gradientUnits="userSpaceOnUse"><stop offset="0" stop-color="#fff"/><stop offset="1" stop-color="#fff" stop-opacity="0"/></radialGradient><radialGradient id="i" cx="79.718" cy="-810.319" r=".458" fx="79.718" fy="-810.319" gradientTransform="matrix(1 0 0 -1 0 -698.18)" gradientUnits="userSpaceOnUse"><stop offset="0" stop-color="#fff"/><stop offset="1" stop-color="#fff" stop-opacity="0"/></radialGradient><radialGradient id="j" cx="83.428" cy="-805.496" r=".458" fx="83.428" fy="-805.496" gradientTransform="matrix(1 0 0 -1 0 -698.18)" gradientUnits="userSpaceOnUse"><stop offset="0" stop-color="#fff"/><stop offset="1" stop-color="#fff" stop-opacity="0"/></radialGradient><radialGradient id="k" cx="74.149" cy="-782.857" r=".458" fx="74.149" fy="-782.857" gradientTransform="matrix(1 0 0 -1 0 -698.18)" gradientUnits="userSpaceOnUse"><stop offset="0" stop-color="#fff"/><stop offset="1" stop-color="#fff" stop-opacity="0"/></radialGradient><radialGradient id="l" cx="17.366" cy="-830.361" r=".458" fx="17.366" fy="-830.361" gradientTransform="matrix(1 0 0 -1 0 -698.18)" gradientUnits="userSpaceOnUse"><stop offset="0" stop-color="#fff"/><stop offset="1" stop-color="#fff" stop-opacity="0"/></radialGradient><radialGradient id="m" cx="49.096" cy="-786.755" r=".457" fx="49.096" fy="-786.755" gradientTransform="matrix(1 0 0 -1 0 -698.18)" gradientUnits="userSpaceOnUse"><stop offset="0" stop-color="#fff"/><stop offset="1" stop-color="#fff" stop-opacity="0"/></radialGradient><radialGradient id="n" cx="74.627" cy="-807.237" r=".915" fx="74.627" fy="-807.237" gradientTransform="matrix(1 0 0 -1 0 -698.18)" gradientUnits="userSpaceOnUse"><stop offset="0" stop-color="#fff"/><stop offset="1" stop-color="#fff" stop-opacity="0"/></radialGradient><radialGradient id="o" cx="85.742" cy="-809.339" r=".915" fx="85.742" fy="-809.339" gradientTransform="matrix(1 0 0 -1 0 -698.18)" gradientUnits="userSpaceOnUse"><stop offset="0" stop-color="#fff"/><stop offset="1" stop-color="#fff" stop-opacity="0"/></radialGradient><radialGradient id="p" cx="35.573" cy="-803.032" r=".915" fx="35.573" fy="-803.032" gradientTransform="matrix(1 0 0 -1 0 -698.18)" gradientUnits="userSpaceOnUse"><stop offset="0" stop-color="#fff"/><stop offset="1" stop-color="#fff" stop-opacity="0"/></radialGradient><radialGradient id="q" cx="50.893" cy="-789.811" r=".915" fx="50.893" fy="-789.811" gradientTransform="matrix(1 0 0 -1 0 -698.18)" gradientUnits="userSpaceOnUse"><stop offset="0" stop-color="#fff"/><stop offset="1" stop-color="#fff" stop-opacity="0"/></radialGradient><radialGradient id="r" cx="70.422" cy="-783.204" r=".915" fx="70.422" fy="-783.204" gradientTransform="matrix(1 0 0 -1 0 -698.18)" gradientUnits="userSpaceOnUse"><stop offset="0" stop-color="#fff"/><stop offset="1" stop-color="#fff" stop-opacity="0"/></radialGradient><radialGradient id="s" cx="71.471" cy="-774.94" r=".915" fx="71.471" fy="-774.94" gradientTransform="matrix(1 0 0 -1 0 -698.18)" gradientUnits="userSpaceOnUse"><stop offset="0" stop-color="#fff"/><stop offset="1" stop-color="#fff" stop-opacity="0"/></radialGradient><radialGradient id="t" cx="90.246" cy="-859.808" r=".915" fx="90.246" fy="-859.808" gradientTransform="matrix(1 0 0 -1 0 -698.18)" gradientUnits="userSpaceOnUse"><stop offset="0" stop-color="#fff"/><stop offset="1" stop-color="#fff" stop-opacity="0"/></radialGradient><radialGradient id="u" cx="87.994" cy="-833.822" r=".915" fx="87.994" fy="-833.822" gradientTransform="matrix(1 0 0 -1 0 -698.18)" gradientUnits="userSpaceOnUse"><stop offset="0" stop-color="#fff"/><stop offset="1" stop-color="#fff" stop-opacity="0"/></radialGradient><radialGradient id="v" cx="94.005" cy="-829.317" r=".915" fx="94.005" fy="-829.317" gradientTransform="matrix(1 0 0 -1 0 -698.18)" gradientUnits="userSpaceOnUse"><stop offset="0" stop-color="#fff"/><stop offset="1" stop-color="#fff" stop-opacity="0"/></radialGradient><radialGradient id="w" cx="78.981" cy="-868.071" r=".915" fx="78.981" fy="-868.071" gradientTransform="matrix(1 0 0 -1 0 -698.18)" gradientUnits="userSpaceOnUse"><stop offset="0" stop-color="#fff"/><stop offset="1" stop-color="#fff" stop-opacity="0"/></radialGradient><radialGradient id="x" cx="17.096" cy="-769.591" r=".457" fx="17.096" fy="-769.591" gradientTransform="matrix(1 0 0 -1 0 -698.18)" gradientUnits="userSpaceOnUse"><stop offset="0" stop-color="#fff"/><stop offset="1" stop-color="#fff" stop-opacity="0"/></radialGradient><radialGradient id="y" cx="28.968" cy="-761.354" r=".458" fx="28.968" fy="-761.354" gradientTransform="matrix(1 0 0 -1 0 -698.18)" gradientUnits="userSpaceOnUse"><stop offset="0" stop-color="#fff"/><stop offset="1" stop-color="#fff" stop-opacity="0"/></radialGradient><radialGradient id="z" cx="56.483" cy="-771.828" r=".458" fx="56.483" fy="-771.828" gradientTransform="matrix(1 0 0 -1 0 -698.18)" gradientUnits="userSpaceOnUse"><stop offset="0" stop-color="#fff"/><stop offset="1" stop-color="#fff" stop-opacity="0"/></radialGradient><radialGradient id="A" cx="57.738" cy="-765.262" r=".457" fx="57.738" fy="-765.262" gradientTransform="matrix(1 0 0 -1 0 -698.18)" gradientUnits="userSpaceOnUse"><stop offset="0" stop-color="#fff"/><stop offset="1" stop-color="#fff" stop-opacity="0"/></radialGradient><radialGradient id="B" cx="43.43" cy="-857.003" r=".458" fx="43.43" fy="-857.003" gradientTransform="matrix(1 0 0 -1 0 -698.18)" gradientUnits="userSpaceOnUse"><stop offset="0" stop-color="#fff"/><stop offset="1" stop-color="#fff" stop-opacity="0"/></radialGradient><radialGradient id="C" cx="50.108" cy="-852.922" r=".458" fx="50.108" fy="-852.922" gradientTransform="matrix(1 0 0 -1 0 -698.18)" gradientUnits="userSpaceOnUse"><stop offset="0" stop-color="#fff"/><stop offset="1" stop-color="#fff" stop-opacity="0"/></radialGradient><radialGradient id="D" cx="41.759" cy="-850.137" r=".457" fx="41.759" fy="-850.137" gradientTransform="matrix(1 0 0 -1 0 -698.18)" gradientUnits="userSpaceOnUse"><stop offset="0" stop-color="#fff"/><stop offset="1" stop-color="#fff" stop-opacity="0"/></radialGradient><radialGradient id="E" cx="60.5" cy="-835.848" r=".458" fx="60.5" fy="-835.848" gradientTransform="matrix(1 0 0 -1 0 -698.18)" gradientUnits="userSpaceOnUse"><stop offset="0" stop-color="#fff"/><stop offset="1" stop-color="#fff" stop-opacity="0"/></radialGradient><radialGradient id="F" cx="64.581" cy="-803.933" r=".458" fx="64.581" fy="-803.933" gradientTransform="matrix(1 0 0 -1 0 -698.18)" gradientUnits="userSpaceOnUse"><stop offset="0" stop-color="#fff"/><stop offset="1" stop-color="#fff" stop-opacity="0"/></radialGradient><radialGradient id="G" cx="58.087" cy="-798.923" r=".457" fx="58.087" fy="-798.923" gradientTransform="matrix(1 0 0 -1 0 -698.18)" gradientUnits="userSpaceOnUse"><stop offset="0" stop-color="#fff"/><stop offset="1" stop-color="#fff" stop-opacity="0"/></radialGradient><radialGradient id="H" cx="63.839" cy="-795.767" r=".458" fx="63.839" fy="-795.767" gradientTransform="matrix(1 0 0 -1 0 -698.18)" gradientUnits="userSpaceOnUse"><stop offset="0" stop-color="#fff"/><stop offset="1" stop-color="#fff" stop-opacity="0"/></radialGradient><radialGradient id="I" cx="27.981" cy="-765.092" r=".915" fx="27.981" fy="-765.092" gradientTransform="matrix(1 0 0 -1 0 -698.18)" gradientUnits="userSpaceOnUse"><stop offset="0" stop-color="#fff"/><stop offset="1" stop-color="#fff" stop-opacity="0"/></radialGradient><radialGradient id="J" cx="60.427" cy="-829.681" r=".915" fx="60.427" fy="-829.681" gradientTransform="matrix(1 0 0 -1 0 -698.18)" gradientUnits="userSpaceOnUse"><stop offset="0" stop-color="#fff"/><stop offset="1" stop-color="#fff" stop-opacity="0"/></radialGradient><radialGradient id="K" cx="38.946" cy="-853.864" r=".915" fx="38.946" fy="-853.864" gradientTransform="matrix(1 0 0 -1 0 -698.18)" gradientUnits="userSpaceOnUse"><stop offset="0" stop-color="#fff"/><stop offset="1" stop-color="#fff" stop-opacity="0"/></radialGradient><radialGradient id="L" cx="58.175" cy="-794.982" r=".915" fx="58.175" fy="-794.982" gradientTransform="matrix(1 0 0 -1 0 -698.18)" gradientUnits="userSpaceOnUse"><stop offset="0" stop-color="#fff"/><stop offset="1" stop-color="#fff" stop-opacity="0"/></radialGradient><radialGradient id="M" cx="16.715" cy="-773.355" r=".915" fx="16.715" fy="-773.355" gradientTransform="matrix(1 0 0 -1 0 -698.18)" gradientUnits="userSpaceOnUse"><stop offset="0" stop-color="#fff"/><stop offset="1" stop-color="#fff" stop-opacity="0"/></radialGradient><radialGradient id="N" cx="33.896" cy="-751.106" r=".456" fx="33.896" fy="-751.106" gradientTransform="matrix(1 0 0 -1 0 -698.18)" gradientUnits="userSpaceOnUse"><stop offset="0" stop-color="#fff"/><stop offset="1" stop-color="#fff" stop-opacity="0"/></radialGradient><radialGradient id="O" cx="41.181" cy="-763.585" r=".456" fx="41.181" fy="-763.585" gradientTransform="matrix(1 0 0 -1 0 -698.18)" gradientUnits="userSpaceOnUse"><stop offset="0" stop-color="#fff"/><stop offset="1" stop-color="#fff" stop-opacity="0"/></radialGradient><radialGradient id="P" cx="28.582" cy="-790.193" r=".456" fx="28.582" fy="-790.193" gradientTransform="matrix(1 0 0 -1 0 -698.18)" gradientUnits="userSpaceOnUse"><stop offset="0" stop-color="#fff"/><stop offset="1" stop-color="#fff" stop-opacity="0"/></radialGradient><radialGradient id="Q" cx="35.028" cy="-791.962" r=".456" fx="35.028" fy="-791.962" gradientTransform="matrix(1 0 0 -1 0 -698.18)" gradientUnits="userSpaceOnUse"><stop offset="0" stop-color="#fff"/><stop offset="1" stop-color="#fff" stop-opacity="0"/></radialGradient><radialGradient id="R" cx="71.256" cy="-763.518" r=".456" fx="71.256" fy="-763.518" gradientTransform="matrix(1 0 0 -1 0 -698.18)" gradientUnits="userSpaceOnUse"><stop offset="0" stop-color="#fff"/><stop offset="1" stop-color="#fff" stop-opacity="0"/></radialGradient><radialGradient id="S" cx="78.159" cy="-772.808" r=".456" fx="78.159" fy="-772.808" gradientTransform="matrix(1 0 0 -1 0 -698.18)" gradientUnits="userSpaceOnUse"><stop offset="0" stop-color="#fff"/><stop offset="1" stop-color="#fff" stop-opacity="0"/></radialGradient><radialGradient id="T" cx="87.692" cy="-755.689" r=".456" fx="87.692" fy="-755.689" gradientTransform="matrix(1 0 0 -1 0 -698.18)" gradientUnits="userSpaceOnUse"><stop offset="0" stop-color="#fff"/><stop offset="1" stop-color="#fff" stop-opacity="0"/></radialGradient><radialGradient id="U" cx="92.212" cy="-759.766" r=".456" fx="92.212" fy="-759.766" gradientTransform="matrix(1 0 0 -1 0 -698.18)" gradientUnits="userSpaceOnUse"><stop offset="0" stop-color="#fff"/><stop offset="1" stop-color="#fff" stop-opacity="0"/></radialGradient><radialGradient id="V" cx="115.507" cy="-752.29" r=".456" fx="115.507" fy="-752.29" gradientTransform="matrix(1 0 0 -1 0 -698.18)" gradientUnits="userSpaceOnUse"><stop offset="0" stop-color="#fff"/><stop offset="1" stop-color="#fff" stop-opacity="0"/></radialGradient><radialGradient id="W" cx="113.588" cy="-727.009" r=".456" fx="113.588" fy="-727.009" gradientTransform="matrix(1 0 0 -1 0 -698.18)" gradientUnits="userSpaceOnUse"><stop offset="0" stop-color="#fff"/><stop offset="1" stop-color="#fff" stop-opacity="0"/></radialGradient><radialGradient id="X" cx="91.165" cy="-750.855" r=".915" fx="91.165" fy="-750.855" gradientTransform="matrix(1 0 0 -1 0 -698.18)" gradientUnits="userSpaceOnUse"><stop offset="0" stop-color="#fff"/><stop offset="1" stop-color="#fff" stop-opacity="0"/></radialGradient><radialGradient id="Y" cx="88.2" cy="-761.771" r=".915" fx="88.2" fy="-761.771" gradientTransform="matrix(1 0 0 -1 0 -698.18)" gradientUnits="userSpaceOnUse"><stop offset="0" stop-color="#fff"/><stop offset="1" stop-color="#fff" stop-opacity="0"/></radialGradient><radialGradient id="Z" cx="115.456" cy="-748.546" r=".915" fx="115.456" fy="-748.546" gradientTransform="matrix(1 0 0 -1 0 -698.18)" gradientUnits="userSpaceOnUse"><stop offset="0" stop-color="#fff"/><stop offset="1" stop-color="#fff" stop-opacity="0"/></radialGradient><radialGradient id="aa" cx="123.607" cy="-750.24" r=".915" fx="123.607" fy="-750.24" gradientTransform="matrix(1 0 0 -1 0 -698.18)" gradientUnits="userSpaceOnUse"><stop offset="0" stop-color="#fff"/><stop offset="1" stop-color="#fff" stop-opacity="0"/></radialGradient><radialGradient id="ab" cx="37.529" cy="-762.311" r=".915" fx="37.529" fy="-762.311" gradientTransform="matrix(1 0 0 -1 0 -698.18)" gradientUnits="userSpaceOnUse"><stop offset="0" stop-color="#fff"/><stop offset="1" stop-color="#fff" stop-opacity="0"/></radialGradient><radialGradient id="ac" cx="63.613" cy="-762.101" r=".915" fx="63.613" fy="-762.101" gradientTransform="matrix(1 0 0 -1 0 -698.18)" gradientUnits="userSpaceOnUse"><stop offset="0" stop-color="#fff"/><stop offset="1" stop-color="#fff" stop-opacity="0"/></radialGradient><radialGradient id="ad" cx="67.634" cy="-768.442" r=".915" fx="67.634" fy="-768.442" gradientTransform="matrix(1 0 0 -1 0 -698.18)" gradientUnits="userSpaceOnUse"><stop offset="0" stop-color="#fff"/><stop offset="1" stop-color="#fff" stop-opacity="0"/></radialGradient><radialGradient id="ae" cx="30.177" cy="-750.431" r=".915" fx="30.177" fy="-750.431" gradientTransform="matrix(1 0 0 -1 0 -698.18)" gradientUnits="userSpaceOnUse"><stop offset="0" stop-color="#fff"/><stop offset="1" stop-color="#fff" stop-opacity="0"/></radialGradient><radialGradient id="af" cx="144.123" cy="-848.928" r=".458" fx="144.123" fy="-848.928" gradientTransform="matrix(1 0 0 -1 0 -698.18)" gradientUnits="userSpaceOnUse"><stop offset="0" stop-color="#fff"/><stop offset="1" stop-color="#fff" stop-opacity="0"/></radialGradient><radialGradient id="ag" cx="146.286" cy="-796.601" r=".458" fx="146.286" fy="-796.601" gradientTransform="matrix(1 0 0 -1 0 -698.18)" gradientUnits="userSpaceOnUse"><stop offset="0" stop-color="#fff"/><stop offset="1" stop-color="#fff" stop-opacity="0"/></radialGradient><radialGradient id="ah" cx="155.115" cy="-805.655" r=".458" fx="155.115" fy="-805.655" gradientTransform="matrix(1 0 0 -1 0 -698.18)" gradientUnits="userSpaceOnUse"><stop offset="0" stop-color="#fff"/><stop offset="1" stop-color="#fff" stop-opacity="0"/></radialGradient><radialGradient id="ai" cx="122.211" cy="-851.319" r=".458" fx="122.211" fy="-851.319" gradientTransform="matrix(1 0 0 -1 0 -698.18)" gradientUnits="userSpaceOnUse"><stop offset="0" stop-color="#fff"/><stop offset="1" stop-color="#fff" stop-opacity="0"/></radialGradient><radialGradient id="aj" cx="109.987" cy="-859.028" r=".458" fx="109.987" fy="-859.028" gradientTransform="matrix(1 0 0 -1 0 -698.18)" gradientUnits="userSpaceOnUse"><stop offset="0" stop-color="#fff"/><stop offset="1" stop-color="#fff" stop-opacity="0"/></radialGradient><radialGradient id="ak" cx="82.963" cy="-847.354" r=".458" fx="82.963" fy="-847.354" gradientTransform="matrix(1 0 0 -1 0 -698.18)" gradientUnits="userSpaceOnUse"><stop offset="0" stop-color="#fff"/><stop offset="1" stop-color="#fff" stop-opacity="0"/></radialGradient><radialGradient id="al" cx="81.419" cy="-853.86" r=".458" fx="81.419" fy="-853.86" gradientTransform="matrix(1 0 0 -1 0 -698.18)" gradientUnits="userSpaceOnUse"><stop offset="0" stop-color="#fff"/><stop offset="1" stop-color="#fff" stop-opacity="0"/></radialGradient><radialGradient id="am" cx="111.096" cy="-889.084" r=".458" fx="111.096" fy="-889.084" gradientTransform="matrix(1 0 0 -1 0 -698.18)" gradientUnits="userSpaceOnUse"><stop offset="0" stop-color="#fff"/><stop offset="1" stop-color="#fff" stop-opacity="0"/></radialGradient><radialGradient id="an" cx="181.026" cy="-798.359" r=".458" fx="181.026" fy="-798.359" gradientTransform="matrix(1 0 0 -1 0 -698.18)" gradientUnits="userSpaceOnUse"><stop offset="0" stop-color="#fff"/><stop offset="1" stop-color="#fff" stop-opacity="0"/></radialGradient><radialGradient id="ao" cx="174.88" cy="-802.92" r=".458" fx="174.88" fy="-802.92" gradientTransform="matrix(1 0 0 -1 0 -698.18)" gradientUnits="userSpaceOnUse"><stop offset="0" stop-color="#fff"/><stop offset="1" stop-color="#fff" stop-opacity="0"/></radialGradient><radialGradient id="ap" cx="99.745" cy="-762.836" r=".458" fx="99.745" fy="-762.836" gradientTransform="matrix(1 0 0 -1 0 -698.18)" gradientUnits="userSpaceOnUse"><stop offset="0" stop-color="#fff"/><stop offset="1" stop-color="#fff" stop-opacity="0"/></radialGradient><radialGradient id="aq" cx="92.894" cy="-766.621" r=".458" fx="92.894" fy="-766.621" gradientTransform="matrix(1 0 0 -1 0 -698.18)" gradientUnits="userSpaceOnUse"><stop offset="0" stop-color="#fff"/><stop offset="1" stop-color="#fff" stop-opacity="0"/></radialGradient><radialGradient id="ar" cx="101.113" cy="-769.769" r=".458" fx="101.113" fy="-769.769" gradientTransform="matrix(1 0 0 -1 0 -698.18)" gradientUnits="userSpaceOnUse"><stop offset="0" stop-color="#fff"/><stop offset="1" stop-color="#fff" stop-opacity="0"/></radialGradient><radialGradient id="as" cx="81.76" cy="-783.219" r=".458" fx="81.76" fy="-783.219" gradientTransform="matrix(1 0 0 -1 0 -698.18)" gradientUnits="userSpaceOnUse"><stop offset="0" stop-color="#fff"/><stop offset="1" stop-color="#fff" stop-opacity="0"/></radialGradient><radialGradient id="at" cx="76.281" cy="-814.927" r=".458" fx="76.281" fy="-814.927" gradientTransform="matrix(1 0 0 -1 0 -698.18)" gradientUnits="userSpaceOnUse"><stop offset="0" stop-color="#fff"/><stop offset="1" stop-color="#fff" stop-opacity="0"/></radialGradient><radialGradient id="au" cx="82.547" cy="-820.218" r=".458" fx="82.547" fy="-820.218" gradientTransform="matrix(1 0 0 -1 0 -698.18)" gradientUnits="userSpaceOnUse"><stop offset="0" stop-color="#fff"/><stop offset="1" stop-color="#fff" stop-opacity="0"/></radialGradient><radialGradient id="av" cx="76.663" cy="-823.115" r=".458" fx="76.663" fy="-823.115" gradientTransform="matrix(1 0 0 -1 0 -698.18)" gradientUnits="userSpaceOnUse"><stop offset="0" stop-color="#fff"/><stop offset="1" stop-color="#fff" stop-opacity="0"/></radialGradient><radialGradient id="aw" cx="148.755" cy="-788.769" r=".458" fx="148.755" fy="-788.769" gradientTransform="matrix(1 0 0 -1 0 -698.18)" gradientUnits="userSpaceOnUse"><stop offset="0" stop-color="#fff"/><stop offset="1" stop-color="#fff" stop-opacity="0"/></radialGradient><radialGradient id="ax" cx="169.224" cy="-845.541" r=".914" fx="169.224" fy="-845.541" gradientTransform="matrix(1 0 0 -1 0 -698.18)" gradientUnits="userSpaceOnUse"><stop offset="0" stop-color="#fff"/><stop offset="1" stop-color="#fff" stop-opacity="0"/></radialGradient><radialGradient id="ay" cx="111.137" cy="-855.337" r=".914" fx="111.137" fy="-855.337" gradientTransform="matrix(1 0 0 -1 0 -698.18)" gradientUnits="userSpaceOnUse"><stop offset="0" stop-color="#fff"/><stop offset="1" stop-color="#fff" stop-opacity="0"/></radialGradient><radialGradient id="az" cx="112.247" cy="-881.397" r=".914" fx="112.247" fy="-881.397" gradientTransform="matrix(1 0 0 -1 0 -698.18)" gradientUnits="userSpaceOnUse"><stop offset="0" stop-color="#fff"/><stop offset="1" stop-color="#fff" stop-opacity="0"/></radialGradient><radialGradient id="aA" cx="106.044" cy="-885.636" r=".914" fx="106.044" fy="-885.636" gradientTransform="matrix(1 0 0 -1 0 -698.18)" gradientUnits="userSpaceOnUse"><stop offset="0" stop-color="#fff"/><stop offset="1" stop-color="#fff" stop-opacity="0"/></radialGradient><radialGradient id="aB" cx="81.561" cy="-789.387" r=".914" fx="81.561" fy="-789.387" gradientTransform="matrix(1 0 0 -1 0 -698.18)" gradientUnits="userSpaceOnUse"><stop offset="0" stop-color="#fff"/><stop offset="1" stop-color="#fff" stop-opacity="0"/></radialGradient><radialGradient id="aC" cx="104.084" cy="-766.171" r=".914" fx="104.084" fy="-766.171" gradientTransform="matrix(1 0 0 -1 0 -698.18)" gradientUnits="userSpaceOnUse"><stop offset="0" stop-color="#fff"/><stop offset="1" stop-color="#fff" stop-opacity="0"/></radialGradient><radialGradient id="aD" cx="146.443" cy="-791.036" r=".914" fx="146.443" fy="-791.036" gradientTransform="matrix(1 0 0 -1 0 -698.18)" gradientUnits="userSpaceOnUse"><stop offset="0" stop-color="#fff"/><stop offset="1" stop-color="#fff" stop-opacity="0"/></radialGradient><radialGradient id="aE" cx="173.973" cy="-797.512" r=".914" fx="173.973" fy="-797.512" gradientTransform="matrix(1 0 0 -1 0 -698.18)" gradientUnits="userSpaceOnUse"><stop offset="0" stop-color="#fff"/><stop offset="1" stop-color="#fff" stop-opacity="0"/></radialGradient><radialGradient id="aF" cx="82.289" cy="-824.15" r=".914" fx="82.289" fy="-824.15" gradientTransform="matrix(1 0 0 -1 0 -698.18)" gradientUnits="userSpaceOnUse"><stop offset="0" stop-color="#fff"/><stop offset="1" stop-color="#fff" stop-opacity="0"/></radialGradient><radialGradient id="aG" cx="181.217" cy="-820.833" r=".914" fx="181.217" fy="-820.833" gradientTransform="matrix(1 0 0 -1 0 -698.18)" gradientUnits="userSpaceOnUse"><stop offset="0" stop-color="#fff"/><stop offset="1" stop-color="#fff" stop-opacity="0"/></radialGradient><radialGradient id="aH" cx="158.387" cy="-837.42" r=".914" fx="158.387" fy="-837.42" gradientTransform="matrix(1 0 0 -1 0 -698.18)" gradientUnits="userSpaceOnUse"><stop offset="0" stop-color="#fff"/><stop offset="1" stop-color="#fff" stop-opacity="0"/></radialGradient><radialGradient id="aI" cx="122.755" cy="-847.579" r=".914" fx="122.755" fy="-847.579" gradientTransform="matrix(1 0 0 -1 0 -698.18)" gradientUnits="userSpaceOnUse"><stop offset="0" stop-color="#fff"/><stop offset="1" stop-color="#fff" stop-opacity="0"/></radialGradient><radialGradient id="aJ" cx="112.196" cy="-8660.703" r=".449" fx="112.196" fy="-8660.703" gradientTransform="matrix(0 1 1 0 8725.64 -14.26)" gradientUnits="userSpaceOnUse"><stop offset="0" stop-color="#fff"/><stop offset="1" stop-color="#fff" stop-opacity="0"/></radialGradient><radialGradient id="aK" cx="109.629" cy="-8674.921" r=".45" fx="109.629" fy="-8674.921" gradientTransform="matrix(0 1 1 0 8725.64 -14.26)" gradientUnits="userSpaceOnUse"><stop offset="0" stop-color="#fff"/><stop offset="1" stop-color="#fff" stop-opacity="0"/></radialGradient><radialGradient id="aL" cx="82.77" cy="-8686.969" r=".45" fx="82.77" fy="-8686.969" gradientTransform="matrix(0 1 1 0 8725.64 -14.26)" gradientUnits="userSpaceOnUse"><stop offset="0" stop-color="#fff"/><stop offset="1" stop-color="#fff" stop-opacity="0"/></radialGradient><radialGradient id="aM" cx="86.521" cy="-8692.501" r=".45" fx="86.521" fy="-8692.501" gradientTransform="matrix(0 1 1 0 8725.64 -14.26)" gradientUnits="userSpaceOnUse"><stop offset="0" stop-color="#fff"/><stop offset="1" stop-color="#fff" stop-opacity="0"/></radialGradient><radialGradient id="aN" cx="31.769" cy="-8617.512" r=".45" fx="31.769" fy="-8617.512" gradientTransform="matrix(0 1 1 0 8725.64 -14.26)" gradientUnits="userSpaceOnUse"><stop offset="0" stop-color="#fff"/><stop offset="1" stop-color="#fff" stop-opacity="0"/></radialGradient><radialGradient id="aO" cx="29.933" cy="-8625.123" r=".45" fx="29.933" fy="-8625.123" gradientTransform="matrix(0 1 1 0 8725.64 -14.26)" gradientUnits="userSpaceOnUse"><stop offset="0" stop-color="#fff"/><stop offset="1" stop-color="#fff" stop-opacity="0"/></radialGradient><radialGradient id="aP" cx="37.807" cy="-8621.184" r=".45" fx="37.807" fy="-8621.184" gradientTransform="matrix(0 1 1 0 8725.64 -14.26)" gradientUnits="userSpaceOnUse"><stop offset="0" stop-color="#fff"/><stop offset="1" stop-color="#fff" stop-opacity="0"/></radialGradient><radialGradient id="aQ" cx="34.655" cy="-8644.543" r=".449" fx="34.655" fy="-8644.543" gradientTransform="matrix(0 1 1 0 8725.64 -14.26)" gradientUnits="userSpaceOnUse"><stop offset="0" stop-color="#fff"/><stop offset="1" stop-color="#fff" stop-opacity="0"/></radialGradient><radialGradient id="aR" cx="54.337" cy="-8669.997" r=".45" fx="54.337" fy="-8669.997" gradientTransform="matrix(0 1 1 0 8725.64 -14.26)" gradientUnits="userSpaceOnUse"><stop offset="0" stop-color="#fff"/><stop offset="1" stop-color="#fff" stop-opacity="0"/></radialGradient><radialGradient id="aS" cx="62.473" cy="-8668.947" r=".45" fx="62.473" fy="-8668.947" gradientTransform="matrix(0 1 1 0 8725.64 -14.26)" gradientUnits="userSpaceOnUse"><stop offset="0" stop-color="#fff"/><stop offset="1" stop-color="#fff" stop-opacity="0"/></radialGradient><radialGradient id="aT" cx="60.637" cy="-8675.247" r=".45" fx="60.637" fy="-8675.247" gradientTransform="matrix(0 1 1 0 8725.64 -14.26)" gradientUnits="userSpaceOnUse"><stop offset="0" stop-color="#fff"/><stop offset="1" stop-color="#fff" stop-opacity="0"/></radialGradient><radialGradient id="aU" cx="107.684" cy="-8671.582" r=".899" fx="107.684" fy="-8671.582" gradientTransform="matrix(0 1 1 0 8725.64 -14.26)" gradientUnits="userSpaceOnUse"><stop offset="0" stop-color="#fff"/><stop offset="1" stop-color="#fff" stop-opacity="0"/></radialGradient><radialGradient id="aV" cx="39.07" cy="-8648.853" r=".899" fx="39.07" fy="-8648.853" gradientTransform="matrix(0 1 1 0 8725.64 -14.26)" gradientUnits="userSpaceOnUse"><stop offset="0" stop-color="#fff"/><stop offset="1" stop-color="#fff" stop-opacity="0"/></radialGradient><radialGradient id="aW" cx="37.155" cy="-8616.564" r=".899" fx="37.155" fy="-8616.564" gradientTransform="matrix(0 1 1 0 8725.64 -14.26)" gradientUnits="userSpaceOnUse"><stop offset="0" stop-color="#fff"/><stop offset="1" stop-color="#fff" stop-opacity="0"/></radialGradient><radialGradient id="aX" cx="65.198" cy="-8671.795" r=".899" fx="65.198" fy="-8671.795" gradientTransform="matrix(0 1 1 0 8725.64 -14.26)" gradientUnits="userSpaceOnUse"><stop offset="0" stop-color="#fff"/><stop offset="1" stop-color="#fff" stop-opacity="0"/></radialGradient><radialGradient id="aY" cx="109.805" cy="-8657.772" r=".899" fx="109.805" fy="-8657.772" gradientTransform="matrix(0 1 1 0 8725.64 -14.26)" gradientUnits="userSpaceOnUse"><stop offset="0" stop-color="#fff"/><stop offset="1" stop-color="#fff" stop-opacity="0"/></radialGradient><linearGradient id="aZ" x1="73.482" x2="180.516" y1="-766.388" y2="-766.388" gradientTransform="matrix(1 0 0 -1 0 -698.18)" gradientUnits="userSpaceOnUse"><stop offset="0" stop-color="#bd1622" stop-opacity=".7"/><stop offset="0" stop-color="#b71622" stop-opacity=".7"/><stop offset=".01" stop-color="#a61622" stop-opacity=".7"/><stop offset=".02" stop-color="#8d1622" stop-opacity=".7"/><stop offset=".23" stop-color="#92212c" stop-opacity=".67"/><stop offset=".44" stop-color="#a2424c" stop-opacity=".57"/><stop offset=".66" stop-color="#be7a81" stop-opacity=".42"/><stop offset=".88" stop-color="#e4c8cb" stop-opacity=".2"/><stop offset="1" stop-color="#fff" stop-opacity=".05"/></linearGradient><linearGradient id="ba" x1="53.915" x2="91.645" y1="-831.165" y2="-831.165" gradientTransform="matrix(1 0 0 -1 0 -698.18)" gradientUnits="userSpaceOnUse"><stop offset="0" stop-color="#fff" stop-opacity=".9"/><stop offset=".18" stop-color="#f9f9e4" stop-opacity=".68"/><stop offset=".39" stop-color="#f4f4c7" stop-opacity=".44"/><stop offset=".59" stop-color="#efefb0" stop-opacity=".25"/><stop offset=".77" stop-color="#ecec9f" stop-opacity=".11"/><stop offset=".91" stop-color="#eaea95" stop-opacity=".03"/><stop offset="1" stop-color="#eaea92" stop-opacity="0"/></linearGradient></defs><g style="isolation:isolate"><circle cx="100" cy="100" r="100" style="fill:#fff" transform="rotate(-45 100 100)"/><path d="M191.976 110.27a92.4 92.4 0 0 1-5.576 22.945c-4.505 11.723-11.483 22.714-20.934 32.166a93 93 0 0 1-6.581 5.98 91.9 91.9 0 0 1-37.686 18.667c-20.296 4.737-41.875 2.541-60.972-6.588a92.3 92.3 0 0 1-25.491-18.06c-11.134-11.137-18.836-24.4-23.1-38.487a88 88 0 0 1-1.304-4.752 93 93 0 0 1-1.39-6.745 92.8 92.8 0 0 1-.57-26.867q.195-1.596.45-3.181a92 92 0 0 1 13.487-35.306 89 89 0 0 1 3.339-4.846 92 92 0 0 1 7.379-8.795 84 84 0 0 1 1.705-1.754c15.436-15.436 34.976-24.273 55.112-26.51a93 93 0 0 1 19.562-.098c20.47 2.058 40.38 10.928 56.06 26.608 20.664 20.66 29.5 48.673 26.51 75.622" style="fill:#191732"/><circle cx="87.692" cy="108.14" r="75.191" style="fill:url(#a);isolation:isolate;mix-blend-mode:overlay"/><path d="M158.885 171.362a91.9 91.9 0 0 1-37.686 18.667c-20.296 4.736-41.875 2.54-60.972-6.589a92.3 92.3 0 0 1-25.491-18.06c-11.134-11.137-18.836-24.4-23.1-38.487a88 88 0 0 1-1.304-4.752 93 93 0 0 1-1.39-6.745 92.8 92.8 0 0 1-.57-26.867q.195-1.596.45-3.181a92 92 0 0 1 13.487-35.306 89 89 0 0 1 3.339-4.846 92 92 0 0 1 7.379-8.795c11.895 5.767 12.6 18.157 12.6 18.157 9.038-.843 13.873 7.356 13.873 7.356h.007c14.597.772 15.069 14.803 15.069 14.803a19.2 19.2 0 0 1-1.713 6.42C70.6 88.005 67.006 90.4 67.006 90.4c8.267 18.014-7.915 24.261-7.915 24.261 16.452 5.134 10.032 22.31 10.032 22.31 7.2 3.81 6.352 8.046 6.352 8.046s9.755-8.005 23.303-8.249a34.7 34.7 0 0 1 13.109 2.32c14.51 5.558 19.79 20.57 21.586 28.294.667 2.867.854 4.73.854 4.73s9.313-9.737 18.206-6.349c3.133 1.192 5.108 3.332 6.352 5.603z" style="fill:#fff;isolation:isolate;mix-blend-mode:overlay"/><path d="M137.411 184.617a92 92 0 0 1-16.212 5.412c-20.296 4.736-41.875 2.54-60.972-6.589a92.3 92.3 0 0 1-25.491-18.06c-11.134-11.137-18.836-24.4-23.1-38.487a88 88 0 0 1-1.304-4.752 93 93 0 0 1-1.39-6.745 92.8 92.8 0 0 1-.57-26.867q.195-1.596.45-3.181a92 92 0 0 1 13.487-35.306c1.326 2.57 2.462 5.55 3.313 8.994 18.325 1.09 12.112 15.691 12.112 15.691h.007c.255-.142 8.747-4.74 14.196 5.363 5.21 16.152-6.51 24.01-6.51 24.01 11.284 14.845-2.604 22.269-2.604 22.269 17.362 11.351 4.774 25.76 4.774 25.76 7.38 3.928 6.51 8.298 6.51 8.298s16.928-13.971 37.326-6.113c20.398 7.859 23.002 34.054 23.002 34.054s9.549-10.043 18.66-6.547c1.776.682 3.192 1.66 4.316 2.8z" style="fill:#fff;isolation:isolate;mix-blend-mode:overlay"/><path d="M57.9 169.158c-.417-.416-1.065.229-.645.645s1.064-.229.644-.645" style="fill:url(#b)"/><path d="M79.684 165.808c-.416-.416-1.064.229-.645.645.416.416 1.065-.229.645-.645" style="fill:url(#c)"/><path d="M91.556 157.567c-.416-.416-1.064.229-.644.645s1.064-.229.644-.645" style="fill:url(#d)"/><path d="M119.07 168.042c-.415-.416-1.063.228-.644.644s1.065-.228.645-.644" style="fill:url(#e)"/><path d="M120.326 161.476c-.416-.416-1.064.228-.644.644s1.064-.228.644-.644" style="fill:url(#f)"/><path d="M89.132 127.59c-.416-.416-1.065.229-.645.645.416.416 1.064-.229.645-.645" style="fill:url(#g)"/><path d="M97.852 119.983c-.416-.416-1.064.228-.644.644s1.064-.228.644-.644" style="fill:url(#h)"/><path d="M80.04 111.817c-.416-.416-1.064.228-.645.644s1.065-.228.645-.644" style="fill:url(#i)"/><path d="M83.75 106.994c-.416-.416-1.064.228-.645.644s1.065-.228.645-.644" style="fill:url(#j)"/><path d="M74.471 84.355c-.416-.416-1.064.228-.644.644s1.064-.228.644-.644" style="fill:url(#k)"/><path d="M17.688 131.859c-.416-.416-1.064.228-.645.644s1.065-.228.645-.644" style="fill:url(#l)"/><path d="M49.419 88.252c-.416-.416-1.065.229-.645.645.416.416 1.064-.229.645-.645" style="fill:url(#m)"/><g style="opacity:.5"><path d="M75.273 108.41c-.832-.832-2.125.461-1.293 1.293s2.125-.46 1.293-1.293" style="fill:url(#n)"/><path d="M86.388 110.513c-.832-.832-2.125.46-1.293 1.293.832.832 2.125-.461 1.293-1.293" style="fill:url(#o)"/><path d="M36.22 104.206c-.832-.832-2.125.46-1.293 1.292s2.125-.46 1.293-1.292" style="fill:url(#p)"/><path d="M51.54 90.984c-.832-.832-2.125.461-1.293 1.293s2.125-.46 1.293-1.293" style="fill:url(#q)"/><path d="M71.068 84.377c-.832-.832-2.125.461-1.293 1.293s2.125-.46 1.293-1.293" style="fill:url(#r)"/><path d="M72.118 76.114c-.832-.832-2.125.46-1.293 1.293.832.832 2.125-.461 1.293-1.293" style="fill:url(#s)"/><path d="M90.893 160.981c-.832-.832-2.125.461-1.293 1.293s2.125-.46 1.293-1.293" style="fill:url(#t)"/><path d="M88.64 134.996c-.831-.832-2.124.46-1.292 1.292s2.125-.46 1.293-1.292" style="fill:url(#u)"/><path d="M94.652 130.491c-.832-.832-2.125.46-1.293 1.293s2.125-.461 1.293-1.293" style="fill:url(#v)"/><path d="M79.628 169.245c-.832-.832-2.125.46-1.293 1.292s2.125-.46 1.293-1.292" style="fill:url(#w)"/></g><path d="M17.418 71.088c-.416-.416-1.064.229-.644.645.416.416 1.064-.229.644-.645" style="fill:url(#x)"/><path d="M29.29 62.851c-.416-.416-1.064.229-.644.645s1.064-.229.644-.645" style="fill:url(#y)"/><path d="M56.805 73.326c-.416-.416-1.064.228-.645.644s1.065-.228.645-.644" style="fill:url(#z)"/><path d="M58.06 66.76c-.415-.416-1.064.228-.644.644.416.416 1.064-.228.645-.644" style="fill:url(#A)"/><path d="M43.752 158.5c-.416-.416-1.064.229-.644.645s1.064-.229.644-.645" style="fill:url(#B)"/><path d="M50.43 154.42c-.416-.417-1.064.228-.644.644s1.064-.229.644-.645" style="fill:url(#C)"/><path d="M42.08 151.635c-.415-.416-1.063.228-.644.644.416.416 1.065-.228.645-.644" style="fill:url(#D)"/><path d="M60.822 137.345c-.416-.416-1.064.229-.644.645s1.064-.229.644-.645" style="fill:url(#E)"/><path d="M64.904 105.431c-.416-.416-1.065.229-.645.645s1.064-.229.645-.645" style="fill:url(#F)"/><path d="M58.409 100.42c-.416-.415-1.064.23-.645.645.416.416 1.065-.229.645-.645" style="fill:url(#G)"/><path d="M64.162 97.265c-.416-.416-1.065.229-.645.645s1.064-.229.645-.645" style="fill:url(#H)"/><g style="opacity:.5"><path d="M28.627 66.265c-.832-.832-2.125.461-1.293 1.293s2.125-.46 1.293-1.293" style="fill:url(#I)"/><path d="M61.074 130.854c-.832-.831-2.125.461-1.293 1.293s2.125-.46 1.293-1.293" style="fill:url(#J)"/><path d="M39.593 155.038c-.832-.832-2.125.46-1.293 1.292s2.124-.46 1.293-1.292" style="fill:url(#K)"/><path d="M58.821 96.156c-.832-.832-2.125.46-1.293 1.293s2.125-.461 1.293-1.293" style="fill:url(#L)"/><path d="M17.362 74.529c-.832-.832-2.125.46-1.293 1.292s2.125-.46 1.293-1.292" style="fill:url(#M)"/></g><path d="M34.192 53.272c.446-.382-.146-1.075-.592-.693s.146 1.076.592.693" style="fill:url(#N)"/><path d="M41.478 65.752c.445-.382-.147-1.076-.593-.694s.147 1.076.593.694" style="fill:url(#O)"/><path d="M28.878 92.36c.446-.383-.146-1.076-.592-.694s.146 1.076.592.693" style="fill:url(#P)"/><path d="M35.324 94.128c.446-.382-.146-1.075-.592-.693s.146 1.076.592.693" style="fill:url(#Q)"/><path d="M71.552 65.684c.446-.382-.146-1.075-.592-.693s.146 1.076.592.693" style="fill:url(#R)"/><path d="M78.455 74.975c.446-.383-.146-1.076-.592-.694s.146 1.076.592.694" style="fill:url(#S)"/><path d="M87.989 57.856c.446-.383-.147-1.076-.593-.694s.147 1.076.593.694" style="fill:url(#T)"/><path d="M92.508 61.933c.446-.382-.146-1.076-.592-.693-.446.382.146 1.075.592.693" style="fill:url(#U)"/><path d="M115.803 54.457c.446-.383-.146-1.076-.592-.694s.146 1.076.592.694" style="fill:url(#V)"/><path d="M113.884 29.176c.446-.383-.146-1.076-.592-.694s.146 1.076.592.694" style="fill:url(#W)"/><g style="opacity:.5"><path d="M91.759 53.37c.895-.765-.293-2.155-1.188-1.39-.896.764.292 2.154 1.188 1.39" style="fill:url(#X)"/><path d="M88.794 64.286c.896-.764-.292-2.154-1.188-1.39-.895.765.293 2.155 1.188 1.39" style="fill:url(#Y)"/><path d="M116.05 51.061c.896-.764-.292-2.155-1.188-1.39s.293 2.155 1.188 1.39" style="fill:url(#Z)"/><path d="M124.201 52.755c.896-.764-.292-2.155-1.188-1.39s.293 2.155 1.188 1.39" style="fill:url(#aa)"/><path d="M38.123 64.826c.896-.764-.292-2.155-1.188-1.39s.293 2.155 1.188 1.39" style="fill:url(#ab)"/><path d="M64.207 64.616c.895-.764-.293-2.155-1.188-1.39s.292 2.155 1.188 1.39" style="fill:url(#ac)"/><path d="M68.228 70.957c.895-.764-.293-2.155-1.188-1.39s.292 2.155 1.188 1.39" style="fill:url(#ad)"/><path d="M30.77 52.946c.896-.764-.292-2.154-1.187-1.39-.896.765.292 2.155 1.188 1.39" style="fill:url(#ae)"/></g><path d="M143.786 151.058c.397.434 1.072-.184.675-.619-.398-.434-1.072.184-.675.619" style="fill:url(#af)"/><path d="M145.948 98.73c.398.435 1.072-.183.675-.618s-1.072.184-.675.618" style="fill:url(#ag)"/><path d="M154.778 107.784c.397.435 1.071-.183.674-.618s-1.072.184-.674.618" style="fill:url(#ah)"/><path d="M121.874 153.449c.397.434 1.072-.184.675-.619s-1.072.184-.675.619" style="fill:url(#ai)"/><path d="M109.65 161.157c.397.435 1.071-.183.674-.618s-1.072.184-.675.618" style="fill:url(#aj)"/><path d="M82.626 149.484c.397.434 1.072-.184.674-.619-.397-.434-1.071.184-.674.619" style="fill:url(#ak)"/><path d="M81.082 155.99c.397.434 1.072-.184.674-.619-.397-.435-1.071.184-.674.618" style="fill:url(#al)"/><path d="M110.759 191.213c.397.434 1.072-.184.674-.619-.397-.434-1.071.184-.674.619" style="fill:url(#am)"/><path d="M180.688 100.488c.398.435 1.072-.184.675-.618-.397-.435-1.072.183-.675.618" style="fill:url(#an)"/><path d="M174.542 105.049c.398.434 1.072-.184.675-.619-.397-.434-1.072.184-.675.619" style="fill:url(#ao)"/><path d="M99.407 64.965c.398.435 1.072-.184.675-.619-.397-.434-1.072.184-.675.619" style="fill:url(#ap)"/><path d="M92.557 68.75c.397.435 1.072-.184.674-.619-.397-.434-1.071.184-.674.619" style="fill:url(#aq)"/><path d="M100.775 71.898c.397.435 1.072-.184.675-.619-.397-.434-1.072.184-.675.619" style="fill:url(#ar)"/><path d="M81.423 85.348c.397.435 1.072-.184.674-.619-.397-.434-1.071.184-.674.619" style="fill:url(#as)"/><path d="M75.944 117.056c.397.435 1.072-.184.674-.618-.397-.435-1.071.183-.674.618" style="fill:url(#at)"/><path d="M82.21 122.347c.397.435 1.072-.183.674-.618s-1.071.184-.674.618" style="fill:url(#au)"/><path d="M76.326 125.244c.397.435 1.072-.183.675-.618s-1.072.184-.675.618" style="fill:url(#av)"/><path d="M148.418 90.898c.397.435 1.072-.184.675-.618-.398-.435-1.072.183-.675.618" style="fill:url(#aw)"/><g style="opacity:.5"><path d="M168.55 147.977c.794.866 2.144-.367 1.349-1.233-.794-.866-2.144.367-1.35 1.233" style="fill:url(#ax)"/><path d="M110.463 157.773c.794.866 2.143-.367 1.349-1.233-.795-.865-2.144.368-1.35 1.233" style="fill:url(#ay)"/><path d="M111.572 183.834c.794.865 2.144-.367 1.35-1.233-.795-.866-2.145.367-1.35 1.233" style="fill:url(#az)"/><path d="M105.37 188.072c.794.866 2.143-.367 1.349-1.233-.795-.865-2.144.368-1.35 1.233" style="fill:url(#aA)"/><path d="M80.887 91.824c.794.865 2.144-.368 1.349-1.233-.794-.866-2.144.367-1.35 1.233" style="fill:url(#aB)"/><path d="M103.41 68.607c.794.866 2.143-.367 1.349-1.233s-2.144.368-1.35 1.233" style="fill:url(#aC)"/><path d="M145.768 93.473c.795.865 2.144-.368 1.35-1.233-.795-.866-2.144.367-1.35 1.233" style="fill:url(#aD)"/><path d="M173.298 99.948c.795.866 2.144-.367 1.35-1.233-.795-.865-2.144.368-1.35 1.233" style="fill:url(#aE)"/><path d="M81.614 126.586c.794.866 2.144-.367 1.35-1.233-.795-.866-2.145.367-1.35 1.233" style="fill:url(#aF)"/><path d="M180.542 123.27c.795.865 2.144-.368 1.35-1.234-.795-.865-2.144.368-1.35 1.233" style="fill:url(#aG)"/><path d="M157.712 139.856c.794.866 2.144-.367 1.35-1.233-.795-.866-2.144.367-1.35 1.233" style="fill:url(#aH)"/><path d="M122.08 150.016c.795.865 2.144-.367 1.35-1.233-.795-.866-2.144.367-1.35 1.233" style="fill:url(#aI)"/></g><path d="M64.476 97.94c0 .588.915.588.915 0 0-.589-.915-.589-.915 0" style="fill:url(#aJ)"/><path d="M50.254 95.373c0 .588.915.588.915 0 0-.589-.915-.589-.915 0" style="fill:url(#aK)"/><path d="M38.206 68.51c0 .588.914.588.914 0s-.914-.588-.914 0" style="fill:url(#aL)"/><path d="M32.674 72.261c0 .589.915.589.915 0 0-.588-.915-.588-.915 0" style="fill:url(#aM)"/><path d="M107.663 17.51c0 .588.915.588.915 0 0-.589-.915-.589-.915 0" style="fill:url(#aN)"/><path d="M100.056 15.673c0 .588.914.588.914 0s-.914-.588-.914 0" style="fill:url(#aO)"/><path d="M103.99 23.547c0 .588.915.588.915 0 0-.589-.914-.589-.914 0" style="fill:url(#aP)"/><path d="M80.636 20.399c0 .588.914.588.914 0s-.914-.589-.914 0" style="fill:url(#aQ)"/><path d="M55.179 40.081c0 .588.914.588.914 0s-.914-.588-.914 0" style="fill:url(#aR)"/><path d="M56.228 48.213c0 .589.914.589.914 0 0-.588-.914-.588-.914 0" style="fill:url(#aS)"/><path d="M49.932 46.377c0 .588.914.588.914 0s-.914-.588-.914 0" style="fill:url(#aT)"/><g style="opacity:.5"><path d="M53.14 93.424c0 1.177 1.829 1.177 1.829 0s-1.83-1.177-1.83 0" style="fill:url(#aU)"/><path d="M75.869 24.81c0 1.176 1.829 1.176 1.829 0s-1.83-1.177-1.83 0" style="fill:url(#aV)"/><path d="M108.158 22.898c0 1.177 1.829 1.177 1.829 0s-1.83-1.176-1.83 0" style="fill:url(#aW)"/><path d="M52.926 50.938c0 1.176 1.83 1.176 1.83 0 0-1.177-1.83-1.177-1.83 0" style="fill:url(#aX)"/><path d="M66.946 95.549c0 1.176 1.829 1.176 1.829 0s-1.829-1.177-1.829 0" style="fill:url(#aY)"/></g><path d="M127.986 119.957c-.09.228-.183.457-.27.682l.27-.686zm20.192 4.084c-3.103 2.005-6.476 3.67-9.68 5-4.995-2.474-8.777-6.476-10.512-9.08 1.398-3.527 3.216-7.312 5.48-10.752l.846-1.245c.008-.01.011-.01.011-.01 1.27-2.148-1.84-4.704-3.192-3.741a1 1 0 0 1-.098.06 192 192 0 0 0 12.9-11.171c-1.163 1.337-2.332 3.204-1.406 4.557.277.412.566.678.873.832 4.71-3.044 9.732-3.35 14.436 1.397 8.282 8.35.802 17.389-9.658 24.153" style="fill:#d91118"/><path d="M91.567 127.11a13.86 13.86 0 0 1-2.806 10.475c-9.283 11.7-34.83 16.86-34.83 16.86s-.78-26.049 8.503-37.749a13.88 13.88 0 0 1 9.564-5.115l19.57 15.526z" style="fill:#eaea92"/><path d="M87.486 123.873a8.1 8.1 0 0 1-1.634 6.116c-5.419 6.828-20.315 9.833-20.315 9.833s-.461-15.188 4.958-22.02a8.1 8.1 0 0 1 5.584-2.983l11.407 9.05z" style="fill:#fff;isolation:isolate;opacity:.850000023841858"/><path d="M101.986 123.79a88 88 0 0 1-1.694.918L73.474 103.43a85 85 0 0 1 .506-1.859c1.297-4.68 5.18-17.595 12.352-32.742l.008-.012a192 192 0 0 1 7.948-15.102l.015-.023c5.58-9.53 12.416-19.169 20.664-27.63 12.326-12.664 24.262-19.38 34.257-22.715 1.559 6.101 5.655 12.356 11.816 17.243 6.16 4.89 13.173 7.45 19.468 7.6-.974 10.493-4.8 23.64-14.33 38.521-20.466 31.967-56.008 52.605-64.2 57.08z" style="fill:#d91118"/><path d="M180.52 28.19c-6.3-.15-13.308-2.71-19.469-7.6-6.16-4.89-10.257-11.142-11.816-17.243a60 60 0 0 1 5.318-1.525c1.015 5.048 4.43 10.486 9.732 14.694 5.303 4.209 11.355 6.304 16.504 6.143 0 1.76-.075 3.597-.266 5.53z" style="fill:#5d69ce"/><path d="M180.786 22.659c-5.15.16-11.198-1.934-16.505-6.143-5.302-4.208-8.72-9.646-9.732-14.694 11.509-2.72 19.544-.952 21.144.315s5.145 8.69 5.096 20.518z" style="fill:#282465"/><path d="M100.344 58.912S85.781 70.961 86.336 68.83l.007-.012a192 192 0 0 1 7.949-15.102l.015-.023a15.5 15.5 0 0 0 1.222-1.997l4.812 7.217z" style="fill:#d91118"/><path d="M86.38 68.705c.63-1.533-2.562-3.984-4.369-2.256q.002 0-.007.011c-.285.315-.87.948-1.016 1.11-2.59 2.724-5.546 5.156-8.41 7.206-5.37-1.544-9.395-5.145-11.954-8.129.562-3.271 1.39-6.734 2.574-10.036 4.213-11.722 11.31-21.065 21.328-14.896 5.692 3.5 6.532 8.466 4.64 13.742.22.263.546.487 1.011.664 1.525.592 3.077-.971 4.115-2.406a191 191 0 0 0-7.945 15.102.6.6 0 0 1 .034-.112" style="fill:#c51116"/><path d="M175.513 1.93c-2.785.27-14.038-.396-23.276 3.553a85 85 0 0 0-4.85 2.253c-21.17 10.613-46.874 37.745-67.238 98.636l-6.15-4.876c1.3-4.68 5.179-17.591 12.352-32.742l.007-.012a191 191 0 0 1 7.945-15.102l.019-.023c5.576-9.53 12.416-19.169 20.668-27.63C127.315 13.32 139.25 6.61 149.242 3.276a60 60 0 0 1 5.318-1.53c11.1-2.62 18.97-1.072 20.95.184z" style="fill:#edf1ca;isolation:isolate;mix-blend-mode:overlay;opacity:.620000004768372"/><path d="M72.579 74.776c-6.375 4.56-12.3 7.229-12.727 6.97-.427-.262-.619-7.086.772-15.099 2.56 2.984 6.584 6.585 11.955 8.129m65.919 54.264-.412.17q-.225.094-.45.183a80 80 0 0 1-4.32 1.581 68 68 0 0 1-4.086 1.226 43 43 0 0 1-2.81.652q-.528.102-.926.154l-.195.026c-.48.056-.768.049-.835-.019-.12-.124-.05-.974.22-2.335q.09-.439.203-.952.102-.421.214-.895l.165-.645q.01-.044.026-.093.163-.62.356-1.3.105-.366.217-.743.17-.568.36-1.165l.019-.057q.079-.251.165-.51.159-.487.33-.992c.067-.195.138-.39.205-.589q.095-.272.195-.543.275-.765.577-1.552l.27-.685c1.732 2.604 5.517 6.61 10.512 9.084" style="fill:#b4c4ff"/><path d="M166.185 66.711c9.53-14.881 13.357-28.032 14.33-38.521-6.299-.15-13.307-2.71-19.468-7.6S150.79 9.448 149.231 3.347c-9.995 3.336-21.93 10.048-34.256 22.714-8.252 8.462-15.088 18.101-20.664 27.631l-.015.023a193 193 0 0 0-7.949 15.102l-.007.012c-7.173 15.15-11.052 28.065-12.352 32.742a83 83 0 0 0-.506 1.859l26.817 21.278a83 83 0 0 0 1.694-.918c4.295-2.346 16.118-9.144 29.344-19.686 1.431-.614 4.204 1.803 2.99 3.85l-.007.01c-.24.349-.724 1.065-.847 1.24-6.656 10.127-9.508 23.288-9.006 23.81.499.501 13.555-2.407 23.719-8.976 10.455-6.765 17.94-15.804 9.657-24.15-4.703-4.748-9.729-4.44-14.435-1.398-.308-.157-.596-.423-.874-.831-.858-1.26.09-2.957 1.158-4.265 8.114-7.671 16.055-16.613 22.5-26.683z" style="fill:url(#aZ);isolation:isolate;mix-blend-mode:multiply;opacity:.610000014305115"/><circle cx="144.052" cy="42.015" r="16.182" style="fill:#b4c4ff"/><circle cx="144.115" cy="41.976" r="13.619" style="fill:#5d69ce" transform="rotate(-61.543 144.115 41.976)"/><path d="M164.997 49.244c.48-1.578-2.03-3.523-4.354-4.94a16.33 16.33 0 0 0-2.852-11.62 16.37 16.37 0 0 0-12.255-6.915 16.3 16.3 0 0 0-8.578 1.724c-2.964-2.616-5.205-3.631-6.337-2.845-1.17.814-.915 3.478.716 7.507a16 16 0 0 0-1.634 2.616c-3.991-.225-6.405.37-6.81 1.697-.408 1.342 1.39 3.242 5.063 5.356q-.015.726.03 1.454a16.4 16.4 0 0 0 2.965 8.33 16.25 16.25 0 0 0 8.72 6.27c2.065.615 4.197.82 6.341.607a16 16 0 0 0 3.275-.678h.004c1.342 1.195 2.964 2.45 4.344 2.976.82.31 1.555.367 2.09-.008 1.339-.93.612-3.946-.318-6.476a16.3 16.3 0 0 0 2.856-3.395c2.833.154 6.236-.026 6.734-1.668zm-5.036-1.945a17 17 0 0 0 .49-1.848c2.17 1.368 3.276 2.575 3.047 3.34-.24.786-1.922 1.172-4.632 1.075q.648-1.226 1.095-2.563zm-5.43 7.742c.835 2.391.947 4.003.3 4.456-.687.476-2.28-.292-4.386-2.102a16.4 16.4 0 0 0 3.388-1.83c.24-.168.469-.344.697-.524m-22.411-23.83c-1.11-2.856-1.334-4.775-.607-5.28.712-.492 2.316.276 4.437 2.113q-.529.319-1.042.678a16.7 16.7 0 0 0-2.788 2.485zm-.88 2.758q.252-.405.528-.787c1.585 3.639 4.028 7.91 6.974 12.183-3.8-1.33-7.24-2.814-9.8-4.22a15.56 15.56 0 0 1 2.297-7.173zm-6.848 2.953c.251-.832 2.002-1.222 4.824-1.09a16.6 16.6 0 0 0-1.188 4.789c-2.568-1.526-3.887-2.864-3.636-3.695zm28.89 17.86a15.6 15.6 0 0 1-3.635 1.897c-2.376-2.196-5.153-5.39-7.918-9.118l.723.225c5.396 1.638 10.576 2.71 14.72 3.05a15.4 15.4 0 0 1-3.89 3.95zm-9.166-28.102q.665-.013 1.353.037a15.43 15.43 0 0 1 11.542 6.513 15.4 15.4 0 0 1 2.635 11.34 15.5 15.5 0 0 1-1.829 5.228c-3.984-.292-9.403-1.412-15.032-3.121-.738-.225-1.476-.458-2.2-.694q-.348-.489-.696-.989c-3.167-4.557-5.82-9.17-7.364-12.794a15.5 15.5 0 0 1 2.934-2.698 15.4 15.4 0 0 1 8.657-2.826zm1.799 30.853a15.5 15.5 0 0 1-5.974-.57 15.3 15.3 0 0 1-8.21-5.905 15.44 15.44 0 0 1-2.793-7.844 16 16 0 0 1-.03-.858c2.125 1.147 4.7 2.305 7.518 3.376 1.113.424 2.267.836 3.44 1.23 2.886 4.01 5.902 7.547 8.6 10.092-.835.228-1.686.397-2.548.483z" style="fill:#b4c4ff"/><path d="M153.728 28.64c-1.135.063-2.6.24-4.25.64-5.823 1.41-13.937 5.633-18.003 17.963a42 42 0 0 0-1.03 3.668 16.37 16.37 0 0 1-2.26-11.864c1.694-8.916 10.298-14.77 19.217-13.072a16.3 16.3 0 0 1 6.33 2.66z" style="fill:#edf1ca;isolation:isolate;mix-blend-mode:overlay;opacity:.620000004768372"/><path d="m72.455 100.353 29.947 23.763-7.814 6-26.203-20.791z" style="fill:#181849"/><path d="M85.901 111.026s-1.941 3.946-3.957 9.062l-13.559-10.76 4.07-8.971 13.45 10.673z" style="fill:#edf1ca;isolation:isolate;mix-blend-mode:overlay"/><path d="M91.504 127.785c.524 3.729-.424 6.67-2.743 9.639-9.283 11.7-34.83 16.86-34.83 16.86s-.78-26.05 8.503-37.749c2.604-2.848 5.172-4.516 8.923-4.85l20.147 16.104z" style="fill:url(#ba);isolation:isolate;mix-blend-mode:hard-light;opacity:.620000004768372"/></g></svg>